# author: headus 3D tools
#  using: ply2obj v1.12
#   from: uvlayout v2.11.04
# 96 vertices
v -1.1632240 0.6220360 1.1632240
v -1.1632240 1.4027751 1.1632240
v -1.1632240 0.6220360 -1.1632240
v -1.1632240 1.4027751 -1.1632240
v 1.1632240 0.6220360 1.1632240
v 1.1632240 1.4027751 1.1632240
v 1.1632240 0.6220360 -1.1632240
v 1.1632240 1.4027751 -1.1632240
v 0.6979350 0.6220360 -1.1632240
v 0.2326450 0.6220360 -1.1632240
v -0.2326451 0.6220360 -1.1632240
v -0.6979350 0.6220360 -1.1632240
v -0.6979350 1.4027751 -1.1632240
v -0.2326451 1.4027751 -1.1632240
v 0.2326450 1.4027751 -1.1632240
v 0.6979350 1.4027751 -1.1632240
v -0.6979350 0.6220360 1.1632240
v -0.2326451 0.6220360 1.1632240
v 0.2326450 0.6220360 1.1632240
v 0.6979350 0.6220360 1.1632240
v 0.6979350 1.4027751 1.1632240
v 0.2326450 1.4027751 1.1632240
v -0.2326451 1.4027751 1.1632240
v -0.6979350 1.4027751 1.1632240
v -1.1632240 0.6220360 -0.6979350
v -1.1632240 0.6220360 -0.2326450
v -1.1632240 0.6220360 0.2326451
v -1.1632240 0.6220360 0.6979350
v -1.1632240 1.4027751 0.6979350
v -1.1632240 1.4027751 0.2326451
v -1.1632240 1.4027751 -0.2326450
v -1.1632240 1.4027751 -0.6979350
v 1.1632240 0.6220360 0.6979350
v 1.1632240 0.6220360 0.2326451
v 1.1632240 0.6220360 -0.2326450
v 1.1632240 0.6220360 -0.6979350
v 1.1632240 1.4027751 -0.6979350
v 1.1632240 1.4027751 -0.2326450
v 1.1632240 1.4027751 0.2326451
v 1.1632240 1.4027751 0.6979350
v 0.6979350 1.4027751 -0.6979350
v 0.6979350 1.4027751 -0.2326450
v 0.6979350 1.4027751 0.2326451
v 0.6979350 1.4027751 0.6979350
v 0.2326450 1.4027751 -0.6979350
v 0.2326450 1.4027751 0.6979350
v -0.2326451 1.4027751 -0.6979350
v -0.2326451 1.4027751 0.6979350
v -0.6979350 1.4027751 -0.6979350
v -0.6979350 1.4027751 -0.2326450
v -0.6979350 1.4027751 0.2326451
v -0.6979350 1.4027751 0.6979350
v -0.6979350 0.6220360 -0.6979350
v -0.6979350 0.6220360 -0.2326450
v -0.6979350 0.6220360 0.2326451
v -0.6979350 0.6220360 0.6979350
v -0.2326451 0.6220360 -0.6979350
v -0.2326451 0.6220360 0.6979350
v 0.2326450 0.6220360 -0.6979350
v 0.2326450 0.6220360 0.6979350
v 0.6979350 0.6220360 -0.6979350
v 0.6979350 0.6220360 -0.2326450
v 0.6979350 0.6220360 0.2326451
v 0.6979350 0.6220360 0.6979350
v -1.1632240 1.9084161 -0.6979350
v -1.1632240 1.9084161 -1.1632240
v 0.6979350 1.9084161 -1.1632240
v 1.1632240 1.9084161 -1.1632240
v 1.1632240 1.9084161 0.6979350
v 1.1632240 1.9084161 1.1632240
v -0.6979350 1.9084161 1.1632240
v -1.1632240 1.9084161 1.1632240
v -0.6979350 1.9084161 -1.1632240
v -0.2326451 1.9084161 -1.1632240
v 0.2326450 1.9084161 -1.1632240
v 0.6979350 1.9084161 1.1632240
v 0.2326450 1.9084161 1.1632240
v -0.2326451 1.9084161 1.1632240
v 0.6979350 1.9084161 0.6979350
v 0.2326450 1.9084161 0.6979350
v -0.2326451 1.9084161 0.6979350
v -0.6979350 1.9084161 0.6979350
v -1.1632240 1.9084161 0.6979350
v -1.1632240 1.9084161 0.2326451
v -1.1632240 1.9084161 -0.2326450
v 1.1632240 1.9084161 -0.6979350
v 1.1632240 1.9084161 -0.2326450
v 1.1632240 1.9084161 0.2326451
v 0.6979350 1.9084161 -0.6979350
v 0.6979350 1.9084161 -0.2326450
v 0.6979350 1.9084161 0.2326451
v 0.2326450 1.9084161 -0.6979350
v -0.2326451 1.9084161 -0.6979350
v -0.6979350 1.9084161 -0.6979350
v -0.6979350 1.9084161 -0.2326450
v -0.6979350 1.9084161 0.2326451
# 6 normals
vn -1.000000 0.000000 0.000000
vn 0.000000 0.000000 -1.000000
vn 1.000000 0.000000 0.000000
vn 0.000000 0.000000 1.000000
vn 0.000000 -1.000000 0.000000
vn 0.000000 1.000000 0.000000
# 210 uv coords
vt 0.124880 0.935822
vt 0.045259 0.850956
vt 0.095841 0.803499
vt 0.175453 0.888376
vt 0.146439 0.756047
vt 0.197055 0.708608
vt 0.276618 0.793529
vt 0.226032 0.840939
vt 0.277593 0.895905
vt 0.227010 0.943350
vt 0.327223 0.746134
vt 0.247684 0.661189
vt 0.298324 0.613781
vt 0.428472 0.651374
vt 0.377844 0.698743
vt 0.348978 0.566389
vt 0.429356 0.753757
vt 0.378729 0.801155
vt 0.479114 0.604019
vt 0.399645 0.519010
vt 0.450327 0.471645
vt 0.529777 0.556673
vt 0.581237 0.611737
vt 0.530566 0.659087
vt 0.580445 0.509347
vt 0.501022 0.424294
vt 0.551729 0.376959
vt 0.631128 0.462031
vt 0.602445 0.329636
vt 0.653165 0.282328
vt 0.732540 0.367425
vt 0.681832 0.414725
vt 0.733245 0.469837
vt 0.682532 0.517143
vt 0.941845 0.153355
vt 0.893021 0.202586
vt 0.843765 0.153765
vt 0.892608 0.104509
vt 0.839986 0.256121
vt 0.790718 0.207313
vt 0.945713 0.051021
vt 0.994931 0.099868
vt 0.843408 0.055624
vt 0.896513 0.002155
vt 0.843706 0.153706
vt 0.794530 0.104803
vt 0.790543 0.207139
vt 0.741379 0.158224
vt 0.931644 0.571762
vt 0.871497 0.606254
vt 0.836979 0.546098
vt 0.897158 0.511593
vt 0.806147 0.643778
vt 0.771619 0.583641
vt 0.962561 0.474126
vt 0.997034 0.534303
vt 0.737070 0.523518
vt 0.802408 0.485972
vt 0.862510 0.451400
vt 0.897106 0.511507
vt 0.927813 0.413793
vt 0.962423 0.473892
vt 0.838170 0.346446
vt 0.896161 0.308372
vt 0.934204 0.366365
vt 0.876243 0.404413
vt 0.959209 0.267059
vt 0.997225 0.325053
vt 0.813265 0.445797
vt 0.775180 0.387839
vt 0.858178 0.250343
vt 0.921213 0.209052
vt 0.800153 0.288294
vt 0.838104 0.346341
vt 0.775011 0.387574
vt 0.737070 0.329521
vt 0.322904 0.309736
vt 0.359642 0.368578
vt 0.300808 0.405296
vt 0.264085 0.346485
vt 0.399534 0.432529
vt 0.340693 0.469235
vt 0.224138 0.282587
vt 0.282939 0.245829
vt 0.341728 0.209052
vt 0.381693 0.272940
vt 0.359723 0.368528
vt 0.418491 0.331705
vt 0.458519 0.395551
vt 0.399760 0.432390
vt 0.995472 0.718069
vt 0.995490 0.787418
vt 0.926138 0.787427
vt 0.926117 0.718077
vt 0.995494 0.856776
vt 0.926142 0.856772
vt 0.995472 0.648722
vt 0.926123 0.648724
vt 0.995487 0.926129
vt 0.926135 0.926125
vt 0.856761 0.718066
vt 0.856773 0.648714
vt 0.995488 0.995479
vt 0.926138 0.995479
vt 0.787414 0.718059
vt 0.787415 0.648707
vt 0.856787 0.995485
vt 0.856785 0.926133
vt 0.718069 0.718075
vt 0.718058 0.648720
vt 0.787432 0.995487
vt 0.787435 0.926135
vt 0.648717 0.718076
vt 0.648707 0.648729
vt 0.718079 0.995482
vt 0.718081 0.926130
vt 0.718063 0.787431
vt 0.648711 0.787427
vt 0.648729 0.995484
vt 0.648728 0.926136
vt 0.718066 0.856778
vt 0.648714 0.856784
vt 0.313355 0.125273
vt 0.244012 0.123596
vt 0.246827 0.007263
vt 0.316149 0.008933
vt 0.385475 0.010591
vt 0.382691 0.126921
vt 0.177510 0.005581
vt 0.380913 0.202260
vt 0.311581 0.200625
vt 0.242196 0.198928
vt 0.172864 0.197276
vt 0.174673 0.121919
vt 0.105324 0.120214
vt 0.108196 0.003877
vt 0.240561 0.268253
vt 0.171228 0.266616
vt 0.035990 0.118482
vt 0.038873 0.002155
vt 0.103426 0.195568
vt 0.034097 0.193811
vt 0.101656 0.264903
vt 0.032327 0.263133
vt 0.122098 0.497374
vt 0.120360 0.566822
vt 0.004005 0.563804
vt 0.005749 0.494545
vt 0.007375 0.425265
vt 0.118436 0.636177
vt 0.002155 0.633096
vt 0.125306 0.358624
vt 0.123702 0.427999
vt 0.008965 0.355960
vt 0.199018 0.429696
vt 0.197483 0.499031
vt 0.195759 0.569054
vt 0.193703 0.638375
vt 0.010535 0.286638
vt 0.126868 0.289282
vt 0.266831 0.500540
vt 0.268344 0.431205
vt 0.263004 0.640478
vt 0.265098 0.571158
vt 0.202210 0.290971
vt 0.200655 0.360306
vt 0.596798 0.157247
vt 0.666141 0.159083
vt 0.663045 0.275415
vt 0.593732 0.273577
vt 0.524414 0.271761
vt 0.735471 0.160946
vt 0.732365 0.277268
vt 0.458126 0.153617
vt 0.527465 0.155433
vt 0.455096 0.269951
vt 0.529432 0.080099
vt 0.598761 0.081898
vt 0.668182 0.083732
vt 0.737508 0.085619
vt 0.385776 0.268156
vt 0.388793 0.151834
vt 0.531220 0.010776
vt 0.600550 0.012564
vt 0.670081 0.014400
vt 0.739406 0.016300
vt 0.390716 0.076500
vt 0.460046 0.078269
vt 0.501685 0.874766
vt 0.571045 0.876446
vt 0.568196 0.992788
vt 0.498890 0.991102
vt 0.429583 0.989448
vt 0.640382 0.878183
vt 0.637514 0.994503
vt 0.362985 0.871480
vt 0.432340 0.873111
vt 0.360272 0.987822
vt 0.434143 0.797773
vt 0.503476 0.799412
vt 0.572970 0.801083
vt 0.642299 0.802864
vt 0.290949 0.986218
vt 0.293646 0.869886
vt 0.435766 0.728448
vt 0.505099 0.730072
vt 0.574769 0.731746
vt 0.644098 0.733543
vt 0.295367 0.794546
vt 0.364700 0.796128
# 96 polygons
s 0
f 25/147/1 32/146/1 4/150/1 3/151/1
f 9/136/2 16/135/2 8/139/2 7/140/2
f 33/191/3 40/190/3 6/194/3 5/195/3
f 17/169/4 24/168/4 2/172/4 1/173/4
f 64/116/5 33/115/5 5/119/5 20/120/5
f 22/79/3 46/78/3 80/81/3 77/82/3
f 4/150/1 32/146/1 65/157/1 66/158/1
f 44/77/6 46/78/6 22/79/6 21/80/6
f 43/87/4 39/88/4 88/89/4 91/90/4
f 48/63/6 52/64/6 24/65/6 23/66/6
f 28/110/5 56/109/5 17/113/5 1/114/5
f 56/109/5 58/117/5 18/118/5 17/113/5
f 58/117/5 60/121/5 19/122/5 18/118/5
f 60/121/5 64/116/5 20/120/5 19/122/5
f 5/181/4 6/182/4 21/174/4 20/176/4
f 20/176/4 21/174/4 22/175/4 19/171/4
f 19/171/4 22/175/4 23/167/4 18/170/4
f 18/170/4 23/167/4 24/168/4 17/169/4
f 3/127/2 4/128/2 13/123/2 12/126/2
f 12/126/2 13/123/2 14/124/2 11/125/2
f 11/125/2 14/124/2 15/134/2 10/129/2
f 10/129/2 15/134/2 16/135/2 9/136/2
f 10/95/5 9/99/5 61/100/5 59/96/5
f 11/92/5 10/95/5 59/96/5 57/93/5
f 12/91/5 11/92/5 57/93/5 53/94/5
f 3/97/5 12/91/5 53/94/5 25/98/5
f 25/98/5 53/94/5 54/101/5 26/102/5
f 26/102/5 54/101/5 55/105/5 27/106/5
f 27/106/5 55/105/5 56/109/5 28/110/5
f 14/49/6 13/50/6 49/51/6 47/52/6
f 44/77/1 21/80/1 76/83/1 79/84/1
f 16/35/6 15/36/6 45/37/6 41/38/6
f 14/49/1 47/52/1 93/55/1 74/56/1
f 37/43/6 41/38/6 42/45/6 38/46/6
f 38/46/2 42/45/2 90/47/2 87/48/2
f 39/88/6 43/87/6 44/77/6 40/86/6
f 41/38/4 37/43/4 86/44/4 89/41/4
f 49/51/6 32/58/6 31/59/6 50/60/6
f 23/167/4 22/175/4 77/177/4 78/178/4
f 51/74/6 30/73/6 29/71/6 52/64/6
f 9/99/5 7/103/5 36/104/5 61/100/5
f 61/100/5 36/104/5 35/107/5 62/108/5
f 62/108/5 35/107/5 34/111/5 63/112/5
f 63/112/5 34/111/5 33/115/5 64/116/5
f 7/203/3 8/204/3 37/196/3 36/198/3
f 36/198/3 37/196/3 38/197/3 35/193/3
f 35/193/3 38/197/3 39/189/3 34/192/3
f 34/192/3 39/189/3 40/190/3 33/191/3
f 1/159/1 2/160/1 29/152/1 28/154/1
f 28/154/1 29/152/1 30/153/1 27/149/1
f 27/149/1 30/153/1 31/145/1 26/148/1
f 26/148/1 31/145/1 32/146/1 25/147/1
f 82/185/6 83/186/6 72/180/6 71/179/6
f 69/201/6 79/207/6 76/208/6 70/202/6
f 80/183/6 81/184/6 78/178/6 77/177/6
f 75/133/6 74/132/6 93/137/6 92/138/6
f 68/142/6 67/141/6 89/143/6 86/144/6
f 87/199/6 90/205/6 91/206/6 88/200/6
f 73/163/6 66/158/6 65/157/6 94/164/6
f 95/161/6 85/156/6 84/155/6 96/162/6
f 40/86/2 44/77/2 79/84/2 69/85/2
f 37/196/3 8/204/3 68/209/3 86/210/3
f 13/123/2 4/128/2 66/130/2 73/131/2
f 48/63/1 23/66/1 78/69/1 81/70/1
f 32/58/4 49/51/4 94/54/4 65/57/4
f 24/65/3 52/64/3 82/67/3 71/68/3
f 50/60/2 31/59/2 85/61/2 95/62/2
f 39/189/3 38/197/3 87/199/3 88/200/3
f 15/134/2 14/124/2 74/132/2 75/133/2
f 47/11/4 45/15/4 92/17/4 93/18/4
f 49/51/3 13/50/3 73/53/3 94/54/3
f 8/139/2 16/135/2 67/141/2 68/142/2
f 30/73/4 51/74/4 96/75/4 84/76/4
f 52/64/2 29/71/2 83/72/2 82/67/2
f 16/35/1 41/38/1 89/41/1 67/42/1
f 51/4/3 50/8/3 95/9/3 96/10/3
f 46/28/2 48/32/2 81/33/2 80/34/2
f 29/152/1 2/160/1 72/165/1 83/166/1
f 6/194/3 40/190/3 69/201/3 70/202/3
f 42/19/1 43/22/1 91/23/1 90/24/1
f 31/145/1 30/153/1 84/155/1 85/156/1
f 45/37/3 15/36/3 75/39/3 92/40/3
f 21/174/4 6/182/4 70/187/4 76/188/4
f 2/172/4 24/168/4 71/179/4 72/180/4
f 60/27/2 58/29/2 48/32/2 46/28/2
f 58/29/2 56/30/2 52/31/2 48/32/2
f 64/26/2 60/27/2 46/28/2 44/25/2
f 44/25/1 43/22/1 63/21/1 64/26/1
f 43/22/1 42/19/1 62/20/1 63/21/1
f 42/19/1 41/14/1 61/16/1 62/20/1
f 61/16/4 41/14/4 45/15/4 59/13/4
f 59/13/4 45/15/4 47/11/4 57/12/4
f 57/12/4 47/11/4 49/7/4 53/6/4
f 50/8/3 54/5/3 53/6/3 49/7/3
f 51/4/3 55/3/3 54/5/3 50/8/3
f 52/1/3 56/2/3 55/3/3 51/4/3
# h3dt: 96 210 6 96
