# author: headus 3D tools
#  using: ply2obj v1.12
#   from: uvlayout v2.11.04
# 32 vertices
v -0.5426110 0.9753420 0.9310800
v -0.5426110 2.3807573 -0.0375160
v -0.5426110 0.3595080 0.0375160
v -0.5426110 1.7649240 -0.9310800
v 0.5426110 0.9753420 0.9310800
v 0.5426110 2.3807573 -0.0375160
v 0.5426110 0.3595080 0.0375160
v 0.5426110 1.7649240 -0.9310800
v -0.5426110 2.4648082 -0.0954431
v -0.5426110 1.8489750 -0.9890070
v 0.5426110 1.8489750 -0.9890070
v 0.5426110 2.4648082 -0.0954431
v -0.4288980 2.4002800 -0.1890742
v -0.4288980 1.9135040 -0.8953762
v 0.4288980 1.9135040 -0.8953762
v 0.4288980 2.4002800 -0.1890742
v -0.4288980 2.3340650 -0.1434390
v -0.4288980 1.8472900 -0.8497422
v 0.4288980 1.8472900 -0.8497422
v 0.4288980 2.3340650 -0.1434390
v -0.4288980 1.6158071 0.3515760
v -0.4288980 1.1290320 -0.3547271
v 0.4288980 1.1290320 -0.3547271
v 0.4288980 1.6158071 0.3515760
v -0.6089710 2.4132751 0.0206659
v -0.6089710 1.7221270 -0.9821780
v 0.6089713 1.7221270 -0.9821780
v 0.6089713 2.4132751 0.0206659
v -0.6089710 2.5076060 -0.0443450
v -0.6089710 1.8164570 -1.0471890
v 0.6089713 1.8164570 -1.0471890
v 0.6089713 2.5076060 -0.0443450
# 14 normals
vn -1.000000 0.000000 0.000000
vn 0.000000 -0.567417 -0.823323
vn 1.000000 0.000000 0.000000
vn 0.000000 0.567417 0.823323
vn 0.000000 -0.823323 0.567417
vn -0.093573 -0.819722 0.564976
vn 0.000000 0.823323 -0.567417
vn 0.093573 0.819722 -0.564976
vn -0.093573 0.819722 -0.564976
vn 0.000000 -0.766587 0.642099
vn 0.000000 0.766587 -0.642099
vn 0.000000 0.872887 -0.487823
vn 0.093573 -0.819722 0.564976
vn 0.000000 -0.872887 0.487823
# 61 uv coords
vt 0.952734 0.293999
vt 0.954141 0.045009
vt 0.705150 0.043589
vt 0.703741 0.292583
vt 0.416890 0.600689
vt 0.416890 0.797518
vt 0.416890 0.403860
vt 0.001953 0.250966
vt 0.001953 0.001953
vt 0.393606 0.001953
vt 0.393606 0.250966
vt 0.001953 0.499980
vt 0.393606 0.499980
vt 0.001953 0.748994
vt 0.393606 0.748994
vt 0.393606 0.998007
vt 0.001953 0.998007
vt 0.979188 0.730104
vt 0.730205 0.730203
vt 0.994449 0.714844
vt 0.714944 0.714943
vt 0.730105 0.979187
vt 0.714844 0.994448
vt 0.979088 0.979087
vt 0.994349 0.994348
vt 0.926796 0.267765
vt 0.927908 0.070948
vt 0.729973 0.266645
vt 0.731089 0.069823
vt 0.995776 0.030007
vt 0.994174 0.309469
vt 0.967895 0.309336
vt 0.969476 0.029848
vt 0.690147 0.001953
vt 0.969609 0.003568
vt 0.689987 0.028254
vt 0.967735 0.335636
vt 0.688272 0.334020
vt 0.688407 0.307742
vt 0.662109 0.307584
vt 0.663704 0.028120
vt 0.734375 0.777343
vt 0.931204 0.777343
vt 0.931204 0.974172
vt 0.734375 0.974172
vt 0.416890 0.207031
vt 0.617050 0.207031
vt 0.617050 0.403860
vt 0.398438 0.403860
vt 0.398438 0.207031
vt 0.617050 0.600689
vt 0.398438 0.600689
vt 0.617050 0.797518
vt 0.398438 0.797518
vt 0.617050 0.994346
vt 0.416890 0.994346
vt 0.398438 0.994346
vt 0.621094 0.339843
vt 0.870108 0.339843
vt 0.870108 0.588857
vt 0.621094 0.588857
# 30 polygons
s 0
f 1/16/1 2/17/1 4/14/1 3/15/1
f 3/15/2 4/14/2 8/12/2 7/13/2
f 7/13/3 8/12/3 6/8/3 5/11/3
f 5/11/4 6/8/4 2/9/4 1/10/4
f 3/58/5 7/59/5 5/60/5 1/61/5
f 6/24/6 8/18/6 27/20/6 28/25/6
f 9/1/7 12/4/7 16/28/7 13/26/7
f 9/1/8 10/2/8 30/33/8 29/32/8
f 11/3/9 12/4/9 32/39/9 31/36/9
f 8/18/10 4/19/10 26/21/10 27/20/10
f 15/57/4 14/54/4 18/6/4 19/56/4
f 11/3/7 10/2/7 14/27/7 15/29/7
f 12/4/7 11/3/7 15/29/7 16/28/7
f 10/2/7 9/1/7 13/26/7 14/27/7
f 17/5/2 20/7/2 24/48/2 21/51/2
f 16/49/1 15/50/1 19/46/1 20/7/1
f 14/54/3 13/52/3 17/5/3 18/6/3
f 13/52/2 16/49/2 20/7/2 17/5/2
f 23/42/7 22/43/7 21/44/7 24/45/7
f 19/56/4 18/6/4 22/53/4 23/55/4
f 20/7/1 19/46/1 23/47/1 24/48/1
f 18/6/3 17/5/3 21/51/3 22/53/3
f 28/40/3 27/41/3 31/36/3 32/39/3
f 26/30/1 25/31/1 29/32/1 30/33/1
f 25/37/4 28/38/4 32/39/4 29/32/4
f 27/34/2 26/35/2 30/33/2 31/36/2
f 12/4/11 9/1/11 29/32/11 32/39/11
f 10/2/12 11/3/12 31/36/12 30/33/12
f 4/19/13 2/22/13 25/23/13 26/21/13
f 2/22/14 6/24/14 28/25/14 25/23/14
# h3dt: 32 61 14 30
