# author: headus 3D tools
#  using: ply2obj v1.12
#   from: uvlayout v2.11.04
# 40 vertices
v -0.3125390 -0.3125390 0.7914520
v -0.3125390 0.3125390 0.7914520
v -0.3125390 -0.3125390 -0.7914522
v -0.3125390 0.3125390 -0.7914522
v 0.3125390 -0.3125390 0.7914520
v 0.3125390 0.3125390 0.7914520
v 0.3125390 -0.3125390 -0.7914522
v 0.3125390 0.3125390 -0.7914522
v 0.1041800 -0.3125390 -0.7914522
v -0.1041800 -0.3125390 -0.7914522
v -0.1041800 0.3125390 -0.7914522
v 0.1041800 0.3125390 -0.7914522
v -0.1041800 -0.3125390 0.7914520
v 0.1041800 -0.3125390 0.7914520
v 0.1041800 0.3125390 0.7914520
v -0.3125390 -0.1041800 0.7914520
v -0.3125390 0.1041800 0.7914520
v -0.3125390 0.1041800 -0.7914522
v -0.3125390 -0.1041800 -0.7914522
v 0.3125390 0.1041800 -0.7914522
v 0.3125390 -0.1041800 -0.7914522
v 0.3125390 0.1041800 0.7914520
v 0.3125390 -0.1041800 0.7914520
v 0.1041800 0.1041800 1.1321929
v 0.1041800 -0.1041800 1.1321929
v -0.1041800 0.1041800 1.1321929
v -0.1041800 -0.1041800 1.1321929
v -0.1041800 0.1041800 -0.5460220
v -0.1041800 -0.1041800 -0.5460220
v 0.1041800 0.1041800 -0.5460220
v 0.1041800 -0.1041800 -0.5460220
v 0.1595860 -0.4787580 -1.0031212
v -0.1595860 -0.4787580 -1.0031212
v -0.1595860 0.4787580 -1.0031212
v 0.1595860 0.4787580 -1.0031212
v -0.1041800 0.3125390 0.7914520
v -0.4787580 0.1595860 -1.0031212
v -0.4787580 -0.1595860 -1.0031212
v 0.4787580 0.1595860 -1.0031212
v 0.4787580 -0.1595860 -1.0031212
# 38 normals
vn -1.000000 0.000000 0.000000
vn -0.452481 -0.452481 -0.768388
vn 1.000000 0.000000 0.000000
vn -0.534884 0.534884 0.654093
vn 0.000000 -1.000000 0.000000
vn 0.000000 1.000000 0.000000
vn -0.316181 -0.948636 0.000000
vn 0.534884 0.534884 0.654093
vn 0.000000 0.853079 0.521638
vn 0.452481 -0.452481 -0.768388
vn 0.000000 -0.762284 -0.647195
vn 0.000000 0.762284 -0.647195
vn 0.000000 0.000000 -1.000000
vn 0.452481 0.452481 -0.768388
vn 0.762284 0.000000 -0.647195
vn 0.000000 -0.853079 0.521638
vn 0.000000 0.000000 1.000000
vn 0.534884 -0.534884 0.654093
vn 0.853079 0.000000 0.521638
vn -0.534884 -0.534884 0.654093
vn -0.853079 0.000000 0.521638
vn 0.786425 0.000000 -0.617530
vn -0.452481 0.452481 -0.768388
vn -0.762284 0.000000 -0.647195
vn 0.948636 0.316181 0.000000
vn 0.000000 0.995697 0.092138
vn 0.000000 -0.995697 0.092138
vn 0.995697 0.000000 0.092138
vn -0.995697 0.000000 0.092138
vn -0.316181 0.948636 0.000000
vn -0.786425 0.000000 -0.617530
vn 0.948636 -0.316181 0.000000
vn 0.000000 0.786425 -0.617530
vn 0.316181 -0.948636 0.000000
vn -0.948636 -0.316181 0.000000
vn 0.316181 0.948636 0.000000
vn -0.948636 0.316181 0.000000
vn 0.000000 -0.786425 -0.617530
# 74 uv coords
vt 0.907819 0.659985
vt 0.907797 0.619606
vt 0.867440 0.660006
vt 0.867418 0.619627
vt 0.144472 0.806279
vt 0.144472 0.850342
vt 0.188535 0.806279
vt 0.188535 0.850342
vt 0.778472 0.678381
vt 0.778426 0.601360
vt 0.849172 0.749000
vt 0.793470 0.734066
vt 0.793358 0.545658
vt 0.849043 0.530659
vt 0.996766 0.601231
vt 0.996812 0.678251
vt 0.926194 0.748954
vt 0.926064 0.530613
vt 0.981879 0.733955
vt 0.981767 0.545546
vt 0.197098 0.732659
vt 0.252200 0.742615
vt 0.262155 0.797718
vt 0.330090 0.788071
vt 0.330090 0.868554
vt 0.262155 0.858905
vt 0.252200 0.914007
vt 0.197098 0.923962
vt 0.070852 0.858905
vt 0.002917 0.868554
vt 0.002916 0.788071
vt 0.070852 0.797717
vt 0.080807 0.742615
vt 0.135910 0.732659
vt 0.080808 0.914007
vt 0.135910 0.923962
vt 0.126264 0.664723
vt 0.206746 0.664724
vt 0.206746 0.991897
vt 0.126264 0.991898
vt 0.048693 0.160864
vt 0.060998 0.092655
vt 0.244690 0.508598
vt 0.198926 0.534397
vt 0.002916 0.186668
vt 0.293338 0.488876
vt 0.135632 0.062405
vt 0.191943 0.102799
vt 0.344126 0.475531
vt 0.242784 0.089441
vt 0.293634 0.076094
vt 0.394909 0.462197
vt 0.322856 0.013242
vt 0.402714 0.002934
vt 0.446974 0.455470
vt 0.446926 0.056299
vt 0.499490 0.056289
vt 0.499484 0.455458
vt 0.552057 0.056289
vt 0.551989 0.455454
vt 0.596277 0.002916
vt 0.676135 0.013218
vt 0.604055 0.462164
vt 0.705360 0.076063
vt 0.756214 0.089405
vt 0.654832 0.475485
vt 0.807062 0.102759
vt 0.705611 0.488817
vt 0.863391 0.062370
vt 0.938016 0.092623
vt 0.754264 0.508538
vt 0.950316 0.160831
vt 0.996094 0.186645
vt 0.800020 0.534339
# 42 polygons
s 0
f 17/43/1 2/44/1 4/45/1 18/41/1
f 30/7/2 12/21/2 8/22/2 20/23/2
f 20/64/3 8/65/3 6/66/3 22/63/3
f 26/3/4 36/11/4 2/12/4 17/9/4
f 9/56/5 7/57/5 5/58/5 14/55/5
f 11/72/6 4/73/6 2/74/6 36/71/6
f 8/65/6 12/67/6 15/68/6 6/66/6
f 3/50/5 10/51/5 13/52/5 1/49/5
f 23/60/7 21/59/7 40/61/7
f 22/16/8 6/19/8 15/17/8 24/1/8
f 24/1/9 15/17/9 36/11/9 26/3/9
f 18/32/10 4/33/10 11/34/10 28/5/10
f 28/5/11 11/34/11 12/21/11 30/7/11
f 10/36/12 29/6/12 31/8/12 9/28/12
f 29/6/13 28/5/13 30/7/13 31/8/13
f 3/35/14 19/29/14 29/6/14 10/36/14
f 19/29/15 18/32/15 28/5/15 29/6/15
f 14/18/16 25/2/16 27/4/16 13/14/16
f 25/2/17 24/1/17 26/3/17 27/4/17
f 5/20/18 23/15/18 25/2/18 14/18/18
f 23/15/19 22/16/19 24/1/19 25/2/19
f 13/14/20 27/4/20 16/10/20 1/13/20
f 27/4/21 26/3/21 17/9/21 16/10/21
f 7/57/3 21/59/3 23/60/3 5/58/3
f 18/32/22 19/29/22 38/30/22 37/31/22
f 9/28/23 31/8/23 21/26/23 7/27/23
f 31/8/24 30/7/24 20/23/24 21/26/24
f 1/49/1 16/46/1 19/48/1 3/50/1
f 9/56/25 14/55/25 32/54/25
f 35/69/26 34/70/26 36/71/26 15/68/26
f 33/53/27 32/54/27 14/55/27 13/52/27
f 40/61/28 39/62/28 22/63/28 23/60/28
f 16/46/29 17/43/29 37/42/29 38/47/29
f 20/64/30 22/63/30 39/62/30
f 21/26/31 20/23/31 39/24/31 40/25/31
f 15/68/32 12/67/32 35/69/32
f 10/36/33 9/28/33 32/39/33 33/40/33
f 19/48/34 16/46/34 38/47/34
f 11/72/35 36/71/35 34/70/35
f 17/43/36 18/41/36 37/42/36
f 13/52/37 10/51/37 33/53/37
f 12/21/38 11/34/38 34/37/38 35/38/38
# h3dt: 40 74 38 42
